<svg xmlns="http://www.w3.org/2000/svg" xmlns:xlink="http://www.w3.org/1999/xlink" viewBox="0 0 533.2 107.24"><defs><style>.cls-1{fill:url(#linear-gradient);}.cls-2{fill:#231f20;}.cls-3{fill:url(#linear-gradient-2);}.cls-4{fill:url(#linear-gradient-3);}.cls-5{fill:url(#linear-gradient-4);}.cls-6{fill:url(#linear-gradient-5);}.cls-7{fill:url(#linear-gradient-6);}.cls-8{fill:url(#linear-gradient-7);}.cls-9{fill:none;}</style><linearGradient id="linear-gradient" x1="362.55" y1="33.36" x2="362.55" y2="10" gradientUnits="userSpaceOnUse"><stop offset="0" stop-color="#ec008c"/><stop offset="0.13" stop-color="#e5057d"/><stop offset="0.52" stop-color="#d01252"/><stop offset="0.82" stop-color="#c31b37"/><stop offset="1" stop-color="#be1e2d"/></linearGradient><linearGradient id="linear-gradient-2" x1="89.11" y1="75.58" x2="168.31" y2="75.58" xlink:href="#linear-gradient"/><linearGradient id="linear-gradient-3" x1="478.39" y1="73.56" x2="489.56" y2="73.56" gradientTransform="translate(193.77 -320.68) rotate(45)" xlink:href="#linear-gradient"/><linearGradient id="linear-gradient-4" x1="495.85" y1="79.12" x2="503.73" y2="79.12" xlink:href="#linear-gradient"/><linearGradient id="linear-gradient-5" x1="464.84" y1="79.12" x2="472.72" y2="79.12" xlink:href="#linear-gradient"/><linearGradient id="linear-gradient-6" x1="445.57" y1="92.7" x2="524.76" y2="92.7" xlink:href="#linear-gradient"/><linearGradient id="linear-gradient-7" x1="462.92" y1="81.68" x2="506.34" y2="81.68" xlink:href="#linear-gradient"/></defs><g id="Layer_2" data-name="Layer 2"><g id="Layer_1-2" data-name="Layer 1"><path class="cls-1" d="M368.93,33.36v-.13H358.79L333.15,10c9.7,5.38,17.11,5.9,22.06,5.39,7.17-.74,8.93-3.59,16.85-3.13,4.14.24,7.82,1.25,13.73.26A33.94,33.94,0,0,0,392,10.87Z"/><path class="cls-2" d="M0,59.74V43.94H79.19V91.43H15.8v15.8H0V75.53H63.29V59.74Z"/><path class="cls-3" d="M168.31,43.94v15.8H89.11V43.94Zm0,23.8V83.53H89.11V67.74Zm0,23.69v15.8H89.11V91.43Z"/><path class="cls-2" d="M178.23,59.74V43.94h79.19V91.43H194v15.8h-15.8V75.53h63.29V59.74Z"/><path class="cls-2" d="M267.34,59.74V43.94h79.19V91.43H283.14v15.8h-15.8V75.53h63.29V59.74Z"/><polygon class="cls-2" points="435.65 91.44 435.65 107.24 356.46 107.24 356.46 43.94 372.26 43.94 372.26 91.44 435.65 91.44"/><circle class="cls-4" cx="483.98" cy="73.56" r="5.58" transform="translate(89.74 363.77) rotate(-45)"/><path class="cls-5" d="M499.79,83.06a3.94,3.94,0,1,0-3.94-3.94A3.95,3.95,0,0,0,499.79,83.06Z"/><path class="cls-6" d="M468.78,83.06a3.94,3.94,0,1,0-3.94-3.94A3.94,3.94,0,0,0,468.78,83.06Z"/><path class="cls-7" d="M508.86,90.54a10.53,10.53,0,0,0-1.74-4.35,8.16,8.16,0,0,0-.78-1A10.66,10.66,0,0,0,503.66,83a5.15,5.15,0,0,1-4,1.77,5,5,0,0,1-3.74-2.07,14.69,14.69,0,0,0-1,1.22,15.3,15.3,0,0,0-5.39-5.3,6.92,6.92,0,0,1-11-.42,29.15,29.15,0,0,0-4.19,5.94,11.2,11.2,0,0,0-1.6-1.14,4.9,4.9,0,0,1-7.78-.3,20.42,20.42,0,0,0-1.95,2.51c-.2.31-.42.64-.62,1a16.47,16.47,0,0,0-.93,1.83V86.19h-15.8v21h79.19v-21h-15.9Z"/><polygon class="cls-2" points="445.57 42.94 445.57 84.19 461.37 84.19 461.37 58.74 508.86 58.74 508.86 84.19 524.76 84.19 524.76 42.94 445.57 42.94"/><path class="cls-8" d="M503.66,83a5.15,5.15,0,0,1-4,1.77,5,5,0,0,1-3.74-2.07,14.69,14.69,0,0,0-1,1.22,15.3,15.3,0,0,0-5.39-5.3,6.92,6.92,0,0,1-11-.42,29.15,29.15,0,0,0-4.19,5.94,11.2,11.2,0,0,0-1.6-1.14,4.9,4.9,0,0,1-7.78-.3,20.42,20.42,0,0,0-1.95,2.51h43.42A10.66,10.66,0,0,0,503.66,83Z"/><path class="cls-2" d="M413.44.63,312.27,0l44.22,40.57h15.77v.21ZM368.3,32.2v-.12h-9.13L333.55,8.58l58.6.36Z"/><rect class="cls-9" x="443.2" y="86.19" width="90" height="2"/><rect class="cls-9" x="445.57" y="85.19" width="15.8" height="1"/><rect class="cls-9" x="443.2" y="85.19" width="2.37" height="1"/><rect class="cls-9" x="508.86" y="85.19" width="15.9" height="1"/><rect class="cls-9" x="461.37" y="85.19" width="47.49" height="1"/><rect class="cls-9" x="524.76" y="85.19" width="2.44" height="1"/></g></g></svg>